<?xml version="1.0" encoding="UTF-8" standalone="no"?>
<!-- Created with Inkscape (http://www.inkscape.org/) -->

<svg
   xmlns:dc="http://purl.org/dc/elements/1.1/"
   xmlns:cc="http://creativecommons.org/ns#"
   xmlns:rdf="http://www.w3.org/1999/02/22-rdf-syntax-ns#"
   xmlns:svg="http://www.w3.org/2000/svg"
   xmlns="http://www.w3.org/2000/svg"
   xmlns:sodipodi="http://sodipodi.sourceforge.net/DTD/sodipodi-0.dtd"
   xmlns:inkscape="http://www.inkscape.org/namespaces/inkscape"
   width="210mm"
   height="297mm"
   id="svg2"
   version="1.1"
   inkscape:version="0.48.4 r9939"
   sodipodi:docname="AlgoBreizh_Fucus.svg">
  <defs
     id="defs4">
    <linearGradient
       id="linearGradient3781">
      <stop
         id="stop3783"
         offset="0"
         style="stop-color:#787422;stop-opacity:1;" />
      <stop
         style="stop-color:#3d0f0d;stop-opacity:1;"
         offset="1"
         id="stop3787" />
    </linearGradient>
  </defs>
  <sodipodi:namedview
     id="base"
     pagecolor="#ffffff"
     bordercolor="#666666"
     borderopacity="1.0"
     inkscape:pageopacity="0.0"
     inkscape:pageshadow="2"
     inkscape:zoom="1.979899"
     inkscape:cx="348.57024"
     inkscape:cy="734.96347"
     inkscape:document-units="px"
     inkscape:current-layer="g4003"
     showgrid="false"
     inkscape:window-width="1920"
     inkscape:window-height="991"
     inkscape:window-x="0"
     inkscape:window-y="31"
     inkscape:window-maximized="1" />
  <metadata
     id="metadata7">
    <rdf:RDF>
      <cc:Work
         rdf:about="">
        <dc:format>image/svg+xml</dc:format>
        <dc:type
           rdf:resource="http://purl.org/dc/dcmitype/StillImage" />
        <dc:title />
      </cc:Work>
    </rdf:RDF>
  </metadata>
  <g
     inkscape:label="Calque 1"
     inkscape:groupmode="layer"
     id="layer1">
    <g
       id="g4003">
      <path
         d="m 248.07838,421.07753 c -30.582,-32.561 -45.48242,-46.84572 -67.17471,-124.25229 -4.65693,-27.41771 26.51513,-25.3034 29.92185,-20.68269 11.875,10.59686 27.603,32.74757 34.53971,68.75143 5.68592,29.5118 35.09069,42.87757 49.18043,54.96657 28.31231,-30.63479 -49.04562,-101.44974 -69.59869,-130.90112 -20.55307,-29.45138 -29.43241,-86.0931 -25.47741,-119.83967 1.56021,-29.37329 42.26,-38.26092 43.559,-15.40178 1.31383,28.42408 -0.70897,63.37557 11.112,94.41357 11.274,25.8 9.93162,25.19408 13.63662,30.81008 1.5632,-29.127 9.66378,-30.67508 13.63738,-42.93108 21.014,-39.827 42.91414,-48.27214 58.63071,-39.36586 10.376,26.173 -19.2128,56.00501 -23.7808,70.68101 -13.708,41.1 16.46487,71.07585 20.60677,107.07985 7.69171,96.11429 -12.57231,48.34 -6.96999,104.233 23.11051,-45.53197 56.10111,-54.31136 68.49139,-79.23967 10.14186,-22.19271 -3.42944,-19.16707 -4.50059,-75.68921 -0.96062,-44.09386 30.46761,-47.27112 42.07541,-41.22812 7.89684,6.59157 8.6848,8.5904 16.162,50.508 0.5491,22.06271 2.643,29.008 -5.0508,52.528 10.788,-15.628 6.7578,-11.846 30.305,-42.426 13.52457,-18.73514 44.63657,-27.17386 44.91557,-0.54093 -1.12357,11.65303 2.09415,36.06003 -27.74335,57.61503 -59.06081,35.12473 -104.76677,64.93856 -128.86563,107.92826 -31.40069,42.18472 -27.62268,82.5559 -1.94868,123.9049 5.77672,9.30364 -40.99662,-12.77419 -70.20591,4.14224 25.26844,-40.58884 2.46793,-132.34612 -45.45728,-195.06352 z"
         style="fill:#1e320a;fill-opacity:1"
         sodipodi:nodetypes="cccsczccccccccccccccccccscc"
         id="path9686"
         inkscape:connector-curvature="0" />
      <path
         sodipodi:nodetypes="sssss"
         inkscape:connector-curvature="0"
         id="path3003"
         d="m 238.21429,137.71934 c 0,7.49529 -10.19958,22.41494 -14.92822,22.63741 -7.59101,0.35714 -14.63234,-5.59643 -14.63234,-13.09172 0,-7.4953 12.97987,-21.26952 18.08123,-21.41806 5.42867,-0.15808 11.47933,4.37707 11.47933,11.87237 z"
         style="fill:#326419;fill-opacity:1;fill-rule:nonzero;stroke:none" />
      <path
         sodipodi:nodetypes="sssss"
         inkscape:connector-curvature="0"
         id="path3003-3"
         d="m 236.19397,188.989 c 0,10.75307 -5.68848,19.15099 -12.68828,19.47015 -11.23695,0.51237 -15.33165,-13.32844 -15.33165,-24.08151 0,-10.75308 6.20941,-16.39592 13.74561,-15.88356 11.73681,0.79797 14.27432,9.74184 14.27432,20.49492 z"
         style="fill:#326419;fill-opacity:1;fill-rule:nonzero;stroke:none" />
      <path
         sodipodi:nodetypes="sssss"
         inkscape:connector-curvature="0"
         id="path3003-1"
         d="m 331.90718,198.94693 c 0,10.07449 -15.72138,20.82268 -21.70974,21.12171 -9.61326,0.48003 -9.49801,-5.28675 -9.49801,-15.36124 0,-10.07451 15.26248,-22.56184 21.70974,-22.0818 10.04088,0.7476 9.49801,6.24681 9.49801,16.32133 z"
         style="fill:#326419;fill-opacity:1;fill-rule:nonzero;stroke:none" />
      <path
         sodipodi:nodetypes="sssss"
         inkscape:connector-curvature="0"
         id="path3003-8"
         d="m 306.10476,251.02173 c 0,11.54176 -13.09701,26.6051 -18.3903,26.94768 -8.49745,0.54995 -9.99473,-8.80649 -9.99473,-20.34825 0,-11.54179 14.69032,-29.14752 20.38924,-28.59757 8.87544,0.85649 7.99579,10.45635 7.99579,21.99814 z"
         style="fill:#326419;fill-opacity:1;fill-rule:nonzero;stroke:none" />
      <path
         sodipodi:nodetypes="sssss"
         inkscape:connector-curvature="0"
         id="path3003-14"
         d="m 215.35714,301.34152 c 0,7.49529 -4.75577,16.85911 -11.27013,17.79587 -7.52203,1.08166 -15.83683,-17.79006 -15.83683,-25.28535 0,-7.4953 7.01595,-12.91842 12.10696,-12.56128 7.92867,0.55621 15,12.55546 15,20.05076 z"
         style="fill:#326419;fill-opacity:1;fill-rule:nonzero;stroke:none" />
      <path
         sodipodi:nodetypes="sssss"
         inkscape:connector-curvature="0"
         id="path3003-9"
         d="m 233.4235,350.28496 c 0,7.49529 -5.29675,17.77209 -10.02539,17.99456 -7.59101,0.35714 -18.09173,-16.92784 -18.09173,-24.42313 0,-7.4953 7.43437,-20.8517 12.52538,-20.49456 7.92867,0.55621 15.59174,19.42783 15.59174,26.92313 z"
         style="fill:#326419;fill-opacity:1;fill-rule:nonzero;stroke:none" />
      <path
         sodipodi:nodetypes="sssss"
         inkscape:connector-curvature="0"
         id="path3003-6"
         d="m 439.28572,302.35145 c 0,9.70241 -8.27327,15.89287 -16.2341,16.18085 -12.77975,0.46231 -19.84169,-12.02615 -19.84169,-21.72856 0,-9.70243 11.27079,-23.1155 19.84169,-22.65319 13.3482,0.71999 16.2341,18.49847 16.2341,28.2009 z"
         style="fill:#326419;fill-opacity:1;fill-rule:nonzero;stroke:none" />
      <path
         sodipodi:nodetypes="sssss"
         inkscape:connector-curvature="0"
         id="path3003-90"
         d="m 440.89813,349.7013 c 0,9.31149 -10.14951,21.90777 -16.62267,22.18414 -10.39152,0.44368 -17.11156,-19.97157 -17.11156,-29.28306 0,-9.31151 13.07575,-17.74733 20.04496,-17.30365 10.85376,0.69098 13.68927,15.09106 13.68927,24.40257 z"
         style="fill:#326419;fill-opacity:1;fill-rule:nonzero;stroke:none" />
      <path
         sodipodi:nodetypes="sssss"
         inkscape:connector-curvature="0"
         id="path3003-67"
         d="m 514.43364,328.50611 c 0,9.50604 -11.42331,18.2889 -17.53186,18.57106 -9.80623,0.45294 -11.53414,-7.25321 -11.53414,-16.75925 0,-9.50605 12.3393,-19.47696 18.91598,-19.02401 10.24242,0.70542 10.15002,7.70616 10.15002,17.2122 z"
         style="fill:#326419;fill-opacity:1;fill-rule:nonzero;stroke:none" />
      <path
         sodipodi:nodetypes="sssss"
         inkscape:connector-curvature="0"
         id="path3003-65"
         d="m 486.90826,367.95836 c 0,8.92318 -20.48218,21.41934 -26.67938,21.6842 -9.94852,0.42518 -7.0209,-4.2574 -7.0209,-13.18059 0,-8.92319 15.79475,-25.08564 22.46686,-24.66047 10.39104,0.66217 11.23342,7.23367 11.23342,16.15686 z"
         style="fill:#326419;fill-opacity:1;fill-rule:nonzero;stroke:none" />
      <path
         sodipodi:nodetypes="sssss"
         inkscape:connector-curvature="0"
         id="path3003-3-5"
         d="m 247.99981,243.46634 c 0,10.28975 -1.99141,13.28367 -10.47667,12.25739 -11.62587,-1.40614 -18.19628,-15.20563 -18.19628,-25.49538 0,-10.28976 5.37351,-15.68947 13.23365,-15.19918 12.2413,0.76359 15.4393,18.14741 15.4393,28.43717 z"
         style="fill:#326419;fill-opacity:1;fill-rule:nonzero;stroke:none" />
    </g>
  </g>
</svg>
